<svg width="40" height="40" viewBox="0 0 232 232" fill="none" xmlns="http://www.w3.org/2000/svg">
<g clip-path="url(#clip0_69_2)">
<rect width="232" height="232" fill="white"/>
<path d="M205.556 200.437L163.99 158.87C178.057 143.465 185.536 123.167 184.826 102.317C184.117 81.468 175.275 61.7245 160.193 47.3113C145.112 32.8982 124.988 24.9604 104.128 25.1963C83.2678 25.4322 63.3287 33.8231 48.5768 48.5737C33.8249 63.3242 25.4322 83.2626 25.1944 104.123C24.9566 124.983 32.8926 145.107 47.3044 160.19C61.7161 175.273 81.4589 184.116 102.308 184.828C123.157 185.539 143.457 178.062 158.863 163.997L200.43 205.564C201.11 206.243 202.032 206.624 202.993 206.623C203.954 206.623 204.875 206.241 205.555 205.562C206.234 204.882 206.616 203.96 206.616 202.999C206.617 202.038 206.235 201.117 205.556 200.437ZM32.624 105.125C32.624 90.7855 36.876 76.7685 44.8424 64.846C52.8087 52.9234 64.1316 43.631 77.3792 38.1436C90.6268 32.6563 105.204 31.2206 119.268 34.018C133.331 36.8154 146.249 43.7203 156.389 53.8596C166.528 63.9989 173.433 76.9171 176.23 90.9806C179.028 105.044 177.592 119.621 172.105 132.869C166.617 146.117 157.325 157.44 145.402 165.406C133.48 173.372 119.463 177.624 105.124 177.624C85.9022 177.603 67.4742 169.957 53.8826 156.366C40.291 142.774 32.6456 124.346 32.624 105.125Z" fill="black"/>
<g clip-path="url(#clip1_69_2)">
<mask id="path-2-inside-1_69_2" fill="white">
<path d="M45.1178 63.458C58.4294 44.4656 80.4585 32 105.491 32C146.133 32 179.118 64.928 179.118 105.5C179.118 146.072 146.133 179 105.491 179C81.5187 179 60.1376 167.534 46.8848 149.835"/>
</mask>
<path d="M45.1178 63.458C58.4294 44.4656 80.4585 32 105.491 32C146.133 32 179.118 64.928 179.118 105.5C179.118 146.072 146.133 179 105.491 179C81.5187 179 60.1376 167.534 46.8848 149.835" fill="white"/>
<path d="M45.9367 64.032C59.0699 45.2942 80.7994 33 105.491 33V31C80.1175 31 57.789 43.637 44.2989 62.884L45.9367 64.032ZM105.491 33C145.583 33 178.118 65.4819 178.118 105.5H180.118C180.118 64.3741 146.684 31 105.491 31V33ZM178.118 105.5C178.118 145.518 145.583 178 105.491 178V180C146.684 180 180.118 146.626 180.118 105.5H178.118ZM105.491 178C81.8425 178 60.7546 166.69 47.6853 149.236L46.0844 150.435C59.5206 168.378 81.1948 180 105.491 180V178Z" fill="black" mask="url(#path-2-inside-1_69_2)"/>
<path d="M55.0132 148.424C55.0132 148.424 55.0132 122.728 54.7776 119.818C54.7776 117.025 53.3934 100.943 53.6879 98.2382L54.4536 98.2676L64.1134 146.778L77.6312 144.396L85.4945 99.4142H86.378C86.7903 102.178 85.6712 115.231 85.6712 118.024C85.4356 120.935 85.4356 143.014 85.4356 143.014L99.1301 140.633V73.013L77.749 69.3086L71.7411 110.763C71.5349 110.763 65.6743 67.2506 65.6743 67.2506L45 63.6638L46.6787 150.1" fill="black"/>
<path d="M141.892 126.374L148.666 125.492L149.549 131.96L157.207 130.49L149.844 81.6861L140.714 80.2161L131.29 134.9L141.009 133.43L141.892 126.374Z" fill="black"/>
<path d="M102.723 90.8001L113.031 91.9761V138.134L125.695 136.076V92.8581L133.941 93.7401V79.0401L102.723 73.4541V90.8001Z" fill="black"/>
<path d="M144.837 98.4441L143.365 114.614L147.193 114.32L145.721 98.4441H144.837Z" fill="white"/>
</g>
</g>
<defs>
<clipPath id="clip0_69_2">
<rect width="232" height="232" fill="white"/>
</clipPath>
<clipPath id="clip1_69_2">
<rect width="134" height="147" fill="white" transform="translate(45 32)"/>
</clipPath>
</defs>
</svg>
